<svg width="30" height="30" viewBox="0 0 30 30" fill="none" xmlns="http://www.w3.org/2000/svg">
<path d="M19 7H13.5C13.2188 7 12.9818 7.09635 12.7891 7.28906C12.5964 7.48177 12.5 7.71875 12.5 8H18V12H22V20H18.5V21H22C22.2812 21 22.5182 20.9036 22.7109 20.7109C22.9036 20.5182 23 20.2812 23 20V11L19 7ZM19 11V8.40625L21.5781 11H19ZM8 9C7.71875 9 7.48177 9.09635 7.28906 9.28906C7.09635 9.48177 7 9.71875 7 10V22C7 22.2812 7.09635 22.5182 7.28906 22.7109C7.48177 22.9036 7.71875 23 8 23H16.5C16.7812 23 17.0182 22.9036 17.2109 22.7109C17.4036 22.5182 17.5 22.2812 17.5 22V13L13.5 9H8ZM16.5 22H8V10H12.5V14H16.5V22ZM13.5 13V10.4062L16.0781 13H13.5Z" fill="#4552CB"/>
<circle cx="15" cy="15" r="15" fill="#C4C4C4" fill-opacity="0.2"/>
</svg>
