<svg width="190" height="29" viewBox="0 0 190 29" fill="none" xmlns="http://www.w3.org/2000/svg">
<ellipse cx="176.283" cy="14.9" rx="13.7166" ry="13.5" fill="#8CCF4D"/>
<path d="M20.568 5.152V22H16.464V11.896L12.696 22H9.384L5.592 11.872V22H1.488V5.152H6.336L11.064 16.816L15.744 5.152H20.568ZM22.7033 15.28C22.7033 13.904 22.9593 12.696 23.4713 11.656C23.9993 10.616 24.7113 9.816 25.6073 9.256C26.5033 8.696 27.5033 8.416 28.6073 8.416C29.5513 8.416 30.3753 8.608 31.0793 8.992C31.7993 9.376 32.3513 9.88 32.7353 10.504V8.608H36.8393V22H32.7353V20.104C32.3353 20.728 31.7753 21.232 31.0553 21.616C30.3513 22 29.5273 22.192 28.5833 22.192C27.4953 22.192 26.5033 21.912 25.6073 21.352C24.7113 20.776 23.9993 19.968 23.4713 18.928C22.9593 17.872 22.7033 16.656 22.7033 15.28ZM32.7353 15.304C32.7353 14.28 32.4473 13.472 31.8713 12.88C31.3113 12.288 30.6233 11.992 29.8073 11.992C28.9913 11.992 28.2953 12.288 27.7193 12.88C27.1593 13.456 26.8793 14.256 26.8793 15.28C26.8793 16.304 27.1593 17.12 27.7193 17.728C28.2953 18.32 28.9913 18.616 29.8073 18.616C30.6233 18.616 31.3113 18.32 31.8713 17.728C32.4473 17.136 32.7353 16.328 32.7353 15.304ZM41.8483 7.216C41.1283 7.216 40.5363 7.008 40.0723 6.592C39.6243 6.16 39.4003 5.632 39.4003 5.008C39.4003 4.368 39.6243 3.84 40.0723 3.424C40.5363 2.992 41.1283 2.776 41.8483 2.776C42.5523 2.776 43.1283 2.992 43.5763 3.424C44.0403 3.84 44.2723 4.368 44.2723 5.008C44.2723 5.632 44.0403 6.16 43.5763 6.592C43.1283 7.008 42.5523 7.216 41.8483 7.216ZM43.9123 23.728C43.9123 25.376 43.4963 26.56 42.6643 27.28C41.8323 28.016 40.6723 28.384 39.1843 28.384H37.5763V24.904H38.5603C39.0083 24.904 39.3283 24.816 39.5203 24.64C39.7123 24.464 39.8083 24.176 39.8083 23.776V8.608H43.9123V23.728ZM60.087 8.608V22H55.983V20.176C55.567 20.768 54.999 21.248 54.279 21.616C53.575 21.968 52.791 22.144 51.927 22.144C50.903 22.144 49.999 21.92 49.215 21.472C48.431 21.008 47.823 20.344 47.391 19.48C46.959 18.616 46.743 17.6 46.743 16.432V8.608H50.823V15.88C50.823 16.776 51.055 17.472 51.519 17.968C51.983 18.464 52.607 18.712 53.391 18.712C54.191 18.712 54.823 18.464 55.287 17.968C55.751 17.472 55.983 16.776 55.983 15.88V8.608H60.087ZM78.3208 13.36C79.2968 13.568 80.0808 14.056 80.6728 14.824C81.2648 15.576 81.5608 16.44 81.5608 17.416C81.5608 18.824 81.0648 19.944 80.0728 20.776C79.0968 21.592 77.7288 22 75.9688 22H68.1208V5.152H75.7048C77.4168 5.152 78.7528 5.544 79.7128 6.328C80.6888 7.112 81.1768 8.176 81.1768 9.52C81.1768 10.512 80.9128 11.336 80.3848 11.992C79.8728 12.648 79.1848 13.104 78.3208 13.36ZM72.2248 11.968H74.9128C75.5848 11.968 76.0968 11.824 76.4488 11.536C76.8168 11.232 77.0008 10.792 77.0008 10.216C77.0008 9.64 76.8168 9.2 76.4488 8.896C76.0968 8.592 75.5848 8.44 74.9128 8.44H72.2248V11.968ZM75.2488 18.688C75.9368 18.688 76.4648 18.536 76.8328 18.232C77.2168 17.912 77.4088 17.456 77.4088 16.864C77.4088 16.272 77.2088 15.808 76.8088 15.472C76.4248 15.136 75.8888 14.968 75.2008 14.968H72.2248V18.688H75.2488ZM96.5651 15.088C96.5651 15.472 96.5411 15.872 96.4931 16.288H87.2051C87.2691 17.12 87.5331 17.76 87.9971 18.208C88.4771 18.64 89.0611 18.856 89.7491 18.856C90.7731 18.856 91.4851 18.424 91.8851 17.56H96.2531C96.0291 18.44 95.6211 19.232 95.0291 19.936C94.4531 20.64 93.7251 21.192 92.8451 21.592C91.9651 21.992 90.9811 22.192 89.8931 22.192C88.5811 22.192 87.4131 21.912 86.3891 21.352C85.3651 20.792 84.5651 19.992 83.9891 18.952C83.4131 17.912 83.1251 16.696 83.1251 15.304C83.1251 13.912 83.4051 12.696 83.9651 11.656C84.5411 10.616 85.3411 9.816 86.3651 9.256C87.3891 8.696 88.5651 8.416 89.8931 8.416C91.1891 8.416 92.3411 8.688 93.3491 9.232C94.3571 9.776 95.1411 10.552 95.7011 11.56C96.2771 12.568 96.5651 13.744 96.5651 15.088ZM92.3651 14.008C92.3651 13.304 92.1251 12.744 91.6451 12.328C91.1651 11.912 90.5651 11.704 89.8451 11.704C89.1571 11.704 88.5731 11.904 88.0931 12.304C87.6291 12.704 87.3411 13.272 87.2291 14.008H92.3651ZM102.834 10.84C103.314 10.104 103.914 9.528 104.634 9.112C105.354 8.68 106.154 8.464 107.034 8.464V12.808H105.906C104.882 12.808 104.114 13.032 103.602 13.48C103.09 13.912 102.834 14.68 102.834 15.784V22H98.7302V8.608H102.834V10.84ZM114.444 22.192C113.276 22.192 112.236 21.992 111.324 21.592C110.412 21.192 109.692 20.648 109.164 19.96C108.636 19.256 108.34 18.472 108.276 17.608H112.332C112.38 18.072 112.596 18.448 112.98 18.736C113.364 19.024 113.836 19.168 114.396 19.168C114.908 19.168 115.3 19.072 115.572 18.88C115.86 18.672 116.004 18.408 116.004 18.088C116.004 17.704 115.804 17.424 115.404 17.248C115.004 17.056 114.356 16.848 113.46 16.624C112.5 16.4 111.7 16.168 111.06 15.928C110.42 15.672 109.868 15.28 109.404 14.752C108.94 14.208 108.708 13.48 108.708 12.568C108.708 11.8 108.916 11.104 109.332 10.48C109.764 9.84 110.388 9.336 111.204 8.968C112.036 8.6 113.02 8.416 114.156 8.416C115.836 8.416 117.156 8.832 118.116 9.664C119.092 10.496 119.652 11.6 119.796 12.976H116.004C115.94 12.512 115.732 12.144 115.38 11.872C115.044 11.6 114.596 11.464 114.036 11.464C113.556 11.464 113.188 11.56 112.932 11.752C112.676 11.928 112.548 12.176 112.548 12.496C112.548 12.88 112.748 13.168 113.148 13.36C113.564 13.552 114.204 13.744 115.068 13.936C116.06 14.192 116.868 14.448 117.492 14.704C118.116 14.944 118.66 15.344 119.124 15.904C119.604 16.448 119.852 17.184 119.868 18.112C119.868 18.896 119.644 19.6 119.196 20.224C118.764 20.832 118.132 21.312 117.3 21.664C116.484 22.016 115.532 22.192 114.444 22.192ZM121.563 15.28C121.563 13.904 121.819 12.696 122.331 11.656C122.859 10.616 123.571 9.816 124.467 9.256C125.363 8.696 126.363 8.416 127.467 8.416C128.411 8.416 129.235 8.608 129.939 8.992C130.659 9.376 131.211 9.88 131.595 10.504V8.608H135.699V22H131.595V20.104C131.195 20.728 130.635 21.232 129.915 21.616C129.211 22 128.387 22.192 127.443 22.192C126.355 22.192 125.363 21.912 124.467 21.352C123.571 20.776 122.859 19.968 122.331 18.928C121.819 17.872 121.563 16.656 121.563 15.28ZM131.595 15.304C131.595 14.28 131.307 13.472 130.731 12.88C130.171 12.288 129.483 11.992 128.667 11.992C127.851 11.992 127.155 12.288 126.579 12.88C126.019 13.456 125.739 14.256 125.739 15.28C125.739 16.304 126.019 17.12 126.579 17.728C127.155 18.32 127.851 18.616 128.667 18.616C129.483 18.616 130.171 18.32 130.731 17.728C131.307 17.136 131.595 16.328 131.595 15.304ZM155.756 8.464C157.42 8.464 158.74 8.968 159.716 9.976C160.708 10.984 161.204 12.384 161.204 14.176V22H157.124V14.728C157.124 13.864 156.892 13.2 156.428 12.736C155.98 12.256 155.356 12.016 154.556 12.016C153.756 12.016 153.124 12.256 152.66 12.736C152.212 13.2 151.988 13.864 151.988 14.728V22H147.908V14.728C147.908 13.864 147.676 13.2 147.212 12.736C146.764 12.256 146.14 12.016 145.34 12.016C144.54 12.016 143.908 12.256 143.444 12.736C142.996 13.2 142.772 13.864 142.772 14.728V22H138.668V8.608H142.772V10.288C143.188 9.728 143.732 9.288 144.404 8.968C145.076 8.632 145.836 8.464 146.684 8.464C147.692 8.464 148.588 8.68 149.372 9.112C150.172 9.544 150.796 10.16 151.244 10.96C151.708 10.224 152.34 9.624 153.14 9.16C153.94 8.696 154.812 8.464 155.756 8.464Z" fill="black"/>
<path d="M168.344 15.28C168.344 13.904 168.6 12.696 169.112 11.656C169.64 10.616 170.352 9.816 171.248 9.256C172.144 8.696 173.144 8.416 174.248 8.416C175.192 8.416 176.016 8.608 176.72 8.992C177.44 9.376 177.992 9.88 178.376 10.504V8.608H182.48V22H178.376V20.104C177.976 20.728 177.416 21.232 176.696 21.616C175.992 22 175.168 22.192 174.224 22.192C173.136 22.192 172.144 21.912 171.248 21.352C170.352 20.776 169.64 19.968 169.112 18.928C168.6 17.872 168.344 16.656 168.344 15.28ZM178.376 15.304C178.376 14.28 178.088 13.472 177.512 12.88C176.952 12.288 176.264 11.992 175.448 11.992C174.632 11.992 173.936 12.288 173.36 12.88C172.8 13.456 172.52 14.256 172.52 15.28C172.52 16.304 172.8 17.12 173.36 17.728C173.936 18.32 174.632 18.616 175.448 18.616C176.264 18.616 176.952 18.32 177.512 17.728C178.088 17.136 178.376 16.328 178.376 15.304Z" fill="white"/>
</svg>
