<svg width="49" height="50" viewBox="0 0 49 50" fill="none" xmlns="http://www.w3.org/2000/svg">
<rect x="0.422852" width="48.1544" height="50" rx="5" fill="#8CCF4D" fill-opacity="0.44"/>
<path d="M21.7243 11C20.9425 11 20.4213 11.5412 20.4213 12.3529V36.7059C20.4213 37.5176 20.9425 38.0588 21.7243 38.0588C22.5061 38.0588 23.0273 37.5176 23.0273 36.7059V12.3529C23.0273 11.5412 22.5061 11 21.7243 11ZM15.2093 24.5294C14.4275 24.5294 13.9062 25.0706 13.9062 25.8823V36.7059C13.9062 37.5176 14.4275 38.0588 15.2093 38.0588C15.9911 38.0588 16.5123 37.5176 16.5123 36.7059V25.8823C16.5123 25.0706 15.9911 24.5294 15.2093 24.5294ZM28.2393 19.1176C27.4575 19.1176 26.9363 19.6588 26.9363 20.4706V36.7059C26.9363 37.5176 27.4575 38.0588 28.2393 38.0588C29.0211 38.0588 29.5423 37.5176 29.5423 36.7059V20.4706C29.5423 19.6588 29.0211 19.1176 28.2393 19.1176ZM34.7543 29.9412C33.9725 29.9412 33.4513 30.4823 33.4513 31.2941V36.7059C33.4513 37.5176 33.9725 38.0588 34.7543 38.0588C35.5361 38.0588 36.0573 37.5176 36.0573 36.7059V31.2941C36.0573 30.4823 35.5361 29.9412 34.7543 29.9412Z" fill="#68C213"/>
</svg>
