<svg width="49" height="50" viewBox="0 0 49 50" fill="none" xmlns="http://www.w3.org/2000/svg">
<rect x="0.422852" width="48.1544" height="50" rx="5" fill="#8CCF4D" fill-opacity="0.44"/>
<g clip-path="url(#clip0)">
<path d="M21.4 24.6C24.0513 24.6 26.2 22.4513 26.2 19.8C26.2 17.1488 24.0513 15 21.4 15C18.7488 15 16.6 17.1488 16.6 19.8C16.6 22.4513 18.7488 24.6 21.4 24.6ZM24.76 25.8H24.1337C23.3013 26.1825 22.375 26.4 21.4 26.4C20.425 26.4 19.5025 26.1825 18.6663 25.8H18.04C15.2575 25.8 13 28.0575 13 30.84V32.4C13 33.3938 13.8063 34.2 14.8 34.2H28C28.9938 34.2 29.8 33.3938 29.8 32.4V30.84C29.8 28.0575 27.5425 25.8 24.76 25.8ZM36.8725 20.985L35.83 19.9313C35.6575 19.755 35.3763 19.755 35.2 19.9275L31.27 23.8275L29.5638 22.11C29.3913 21.9338 29.11 21.9338 28.9338 22.1063L27.88 23.1525C27.7038 23.325 27.7038 23.6063 27.8763 23.7825L30.94 26.8688C31.1125 27.045 31.3938 27.045 31.57 26.8725L36.8688 21.615C37.0413 21.4388 37.045 21.1575 36.8725 20.985Z" fill="#68C213"/>
</g>
<defs>
<clipPath id="clip0">
<rect width="24" height="19.2" fill="white" transform="translate(13 15)"/>
</clipPath>
</defs>
</svg>
