<svg width="34" height="39" viewBox="0 0 34 39" fill="none" xmlns="http://www.w3.org/2000/svg">
<path d="M0.720703 0.5H29.0007C31.4859 0.5 33.5007 2.51472 33.5007 5V34C33.5007 36.4853 31.4859 38.5 29.0007 38.5H0.720703V0.5Z" stroke="#A8A8A8"/>
<path opacity="0.5" d="M27.5766 16.6555H6.64453V27.2586C6.64453 28.196 6.97533 29.095 7.56416 29.7578C8.15299 30.4206 8.95161 30.793 9.78433 30.793H24.4368C25.2695 30.793 26.0681 30.4206 26.6569 29.7578C27.2458 29.095 27.5766 28.196 27.5766 27.2586V16.6555ZM11.8775 14.2992C11.6 14.2992 11.3338 14.1751 11.1375 13.9542C10.9412 13.7332 10.8309 13.4336 10.8309 13.1211V8.40859C10.8309 8.09614 10.9412 7.79647 11.1375 7.57553C11.3338 7.35459 11.6 7.23047 11.8775 7.23047C12.1551 7.23047 12.4213 7.35459 12.6176 7.57553C12.8139 7.79647 12.9241 8.09614 12.9241 8.40859V13.1211C12.9241 13.4336 12.8139 13.7332 12.6176 13.9542C12.4213 14.1751 12.1551 14.2992 11.8775 14.2992ZM22.3435 14.2992C22.066 14.2992 21.7998 14.1751 21.6035 13.9542C21.4072 13.7332 21.2969 13.4336 21.2969 13.1211V8.40859C21.2969 8.09614 21.4072 7.79647 21.6035 7.57553C21.7998 7.35459 22.066 7.23047 22.3435 7.23047C22.6211 7.23047 22.8873 7.35459 23.0836 7.57553C23.2799 7.79647 23.3902 8.09614 23.3902 8.40859V13.1211C23.3902 13.4336 23.2799 13.7332 23.0836 13.9542C22.8873 14.1751 22.6211 14.2992 22.3435 14.2992Z" fill="#4552CB"/>
<path d="M24.4368 9.58789H23.3902V13.1223C23.3902 13.4347 23.2799 13.7344 23.0836 13.9553C22.8873 14.1763 22.6211 14.3004 22.3435 14.3004C22.066 14.3004 21.7998 14.1763 21.6035 13.9553C21.4072 13.7344 21.2969 13.4347 21.2969 13.1223V9.58789H12.9241V13.1223C12.9241 13.4347 12.8139 13.7344 12.6176 13.9553C12.4213 14.1763 12.1551 14.3004 11.8775 14.3004C11.6 14.3004 11.3338 14.1763 11.1375 13.9553C10.9412 13.7344 10.8309 13.4347 10.8309 13.1223V9.58789H9.78433C8.95161 9.58789 8.15299 9.96026 7.56416 10.6231C6.97533 11.2859 6.64453 12.1849 6.64453 13.1223V16.6566H27.5766V13.1223C27.5766 12.1849 27.2458 11.2859 26.6569 10.6231C26.0681 9.96026 25.2695 9.58789 24.4368 9.58789V9.58789Z" fill="#4552CB"/>
</svg>
